<?xml version="1.0" encoding="UTF-8"?>
<svg width="800" height="520" viewBox="0 0 800 520" xmlns="http://www.w3.org/2000/svg"
    xmlns:xlink="http://www.w3.org/1999/xlink">
    <defs>
        <linearGradient id="g1" x1="0" x2="1">
            <stop offset="0%" stop-color="#e8f5e9" />
            <stop offset="100%" stop-color="#c8e6c9" />
        </linearGradient>
    </defs>
    <rect width="100%" height="100%" fill="url(#g1)" rx="24" />
    <g transform="translate(80,80)">
        <rect x="0" y="40" width="220" height="160" rx="8" fill="#fff" stroke="#a5d6a7" />
        <rect x="20" y="60" width="180" height="6" rx="3" fill="#c8e6c9" />
        <rect x="20" y="76" width="140" height="6" rx="3" fill="#c8e6c9" />

        <rect x="260" y="20" width="220" height="200" rx="8" fill="#fff" stroke="#81c784" />
        <rect x="280" y="44" width="180" height="8" rx="4" fill="#a5d6a7" />
        <rect x="280" y="64" width="140" height="8" rx="4" fill="#a5d6a7" />

        <rect x="520" y="60" width="220" height="140" rx="8" fill="#fff" stroke="#66bb6a" />
        <rect x="540" y="84" width="180" height="8" rx="4" fill="#81c784" />

        <g transform="translate(80,220)">
            <rect x="-10" y="0" width="360" height="12" rx="6" fill="#2e7d32" opacity="0.9" />
            <text x="10" y="9" font-size="9" fill="#fff">Read · Review · Recommend</text>
        </g>
    </g>
    <g transform="translate(40,360)">
        <circle cx="60" cy="40" r="40" fill="#4caf50" opacity="0.08" />
        <text x="120" y="48" font-size="20" fill="#2e7d32"
            font-family="Arial, Helvetica, sans-serif">Find your next read</text>
    </g>
</svg>