<?xml version="1.0" encoding="UTF-8"?>
<svg width="900" height="520" viewBox="0 0 900 520" xmlns="http://www.w3.org/2000/svg">
  <defs>
    <linearGradient id="bg" x1="0" x2="1">
      <stop offset="0%" stop-color="#ffffff" />
      <stop offset="100%" stop-color="#f1fbf2" />
    </linearGradient>
  </defs>
  <rect width="100%" height="100%" fill="url(#bg)" />
  <g transform="translate(60,60)">
    <g>
      <rect x="0" y="0" rx="10" ry="10" width="240" height="200" fill="#ffffff" stroke="#c8e6c9" stroke-width="2"/>
      <rect x="16" y="20" width="200" height="14" rx="6" fill="#4caf50" opacity="0.12" />
      <rect x="16" y="44" width="160" height="12" rx="6" fill="#a5d6a7" opacity="0.2" />
      <rect x="16" y="64" width="120" height="12" rx="6" fill="#a5d6a7" opacity="0.15" />
    </g>

    <g transform="translate(260,10)">
      <rect x="0" y="0" rx="10" ry="10" width="260" height="220" fill="#ffffff" stroke="#a5d6a7" stroke-width="2"/>
      <rect x="18" y="30" width="220" height="14" rx="6" fill="#4caf50" opacity="0.14" />
      <rect x="18" y="56" width="180" height="12" rx="6" fill="#a5d6a7" opacity="0.18" />
      <rect x="18" y="84" width="150" height="12" rx="6" fill="#a5d6a7" opacity="0.12" />
    </g>

    <g transform="translate(550,40)">
      <rect x="0" y="0" rx="10" ry="10" width="220" height="160" fill="#ffffff" stroke="#81c784" stroke-width="2"/>
      <rect x="16" y="26" width="180" height="12" rx="6" fill="#66bb6a" opacity="0.18" />
    </g>

    <g transform="translate(30,260)">
      <rect x="0" y="0" width="740" height="12" rx="6" fill="#2e7d32" opacity="0.9" />
      <text x="20" y="9" font-size="10" fill="#fff" font-family="Arial">Read · Review · Recommend</text>
    </g>

    <g transform="translate(40,300)">
      <circle cx="60" cy="40" r="40" fill="#4caf50" opacity="0.08" />
      <text x="120" y="48" font-size="20" fill="#2e7d32" font-family="Arial">Find your next read</text>
    </g>
  </g>
</svg>
